<svg viewBox="0 0 301.643 274.928" xmlns="http://www.w3.org/2000/svg" xmlns:xlink="http://www.w3.org/1999/xlink" width="301.643066" height="274.927948" fill="none" customFrame="#000000">
	<path id="Vector" d="M78.1499 88.7162C78.1499 85.7646 89.0463 0 89.0463 0L119.937 76.893L170.807 4.93622L146.295 90.7009L223.522 72.9576L149.922 119.283L206.248 173.497L138.103 145.898L157.175 228.711L112.652 159.706L62.6889 238.567L78.1344 145.898L0 151.818L70.865 119.283L0 63.0852L78.1499 88.7162Z" fill="rgb(188,236,48)" fill-rule="nonzero" transform="matrix(-0.320303,0.947315,-0.964293,-0.264839,301.643,63.1819)" />
	<path id="Vector" d="M89.0463 0L119.937 76.893L170.807 4.93622L146.295 90.7009L223.522 72.9576L149.922 119.283L206.248 173.497L138.103 145.898L157.175 228.711L112.652 159.706L62.6889 238.567L78.1344 145.898L0 151.818L70.865 119.283L0 63.0852L78.1499 88.7162C78.1499 85.7646 89.0463 0 89.0463 0Z" fill-rule="nonzero" stroke="rgb(32,32,39)" stroke-linecap="round" stroke-width="1.000000" transform="matrix(-0.320303,0.947315,-0.964293,-0.264839,301.643,63.1819)" />
</svg>
