<svg viewBox="0 0 1074.5 1130.96" xmlns="http://www.w3.org/2000/svg" xmlns:xlink="http://www.w3.org/1999/xlink" width="1074.500488" height="1130.957520" fill="none" customFrame="#000000">
	<g id="Group 1597880565">
		<path id="Vector 4780" d="M241.293 323.457L317.5 411.837L0.500488 486.457" stroke="rgb(32,32,39)" stroke-linecap="round" stroke-width="1.000000" />
		<path id="Vector" d="M262.063 294.173C262.063 284.386 298.602 0 298.602 0L402.19 254.969L572.775 16.3679L490.576 300.754L749.546 241.919L502.738 395.53L691.618 575.296L463.106 483.782L527.062 758.381L377.761 529.567L210.217 791.061L262.011 483.782L0 503.413L237.634 395.53L0 209.183L262.063 294.173Z" fill="rgb(188,236,48)" fill-rule="nonzero" transform="matrix(-0.316421,0.948619,-0.963363,-0.268199,1074.5,212.162)" />
		<path id="Vector" d="M298.602 0L402.19 254.969L572.775 16.3679L490.576 300.754L749.546 241.919L502.738 395.53L691.618 575.296L463.106 483.782L527.062 758.381L377.761 529.567L210.217 791.061L262.011 483.782L0 503.413L237.634 395.53L0 209.183L262.063 294.173C262.063 284.386 298.602 0 298.602 0Z" fill-rule="nonzero" stroke="rgb(32,32,39)" stroke-linecap="round" stroke-width="1.000000" transform="matrix(-0.316421,0.948619,-0.963363,-0.268199,1074.5,212.162)" />
		<path id="Vector 4781" d="M231.583 587.457L355.5 587.457L213.5 766.457" stroke="rgb(32,32,39)" stroke-linecap="round" stroke-width="1.000000" />
		<path id="Vector 4782" d="M371.5 791.502L485.261 712.457L591.382 1130.46" stroke="rgb(32,32,39)" stroke-linecap="round" stroke-width="1.000000" />
		<path id="Vector 4788" d="M449.659 801.457L393.5 860.222L473.5 927.457L449.659 801.457Z" fill="rgb(188,236,48)" fill-rule="evenodd" />
		<path id="Vector 4788" d="M449.659 801.457L473.5 927.457L393.5 860.222L449.659 801.457Z" fill-rule="evenodd" stroke="rgb(32,32,39)" stroke-linecap="round" stroke-width="1.000000" />
		<path id="Vector 4791" d="M491.5 996.457L525.5 1120.46" stroke="rgb(32,32,39)" stroke-linecap="round" stroke-width="1.000000" />
	</g>
</svg>
