<svg viewBox="0 0 35 35" xmlns="http://www.w3.org/2000/svg" xmlns:xlink="http://www.w3.org/1999/xlink" width="35.000000" height="35.000000" fill="none" customFrame="#000000">
	<path id="Star 2" d="M22.2266 12.7734L35 17.5L22.2266 22.2266L17.5 35L12.7734 22.2266L3.55271e-15 17.5L12.7734 12.7734L17.5 0L22.2266 12.7734Z" fill="rgb(188,236,48)" fill-rule="evenodd" />
	<path id="Star 2" d="M22.2266 12.7734L33.5592 16.9669L35 17.5L33.5592 18.0331L22.2266 22.2266L18.0331 33.5592L17.5 35L16.9669 33.5592L12.7734 22.2266L1.44077 18.0331L0 17.5L1.44077 16.9669L12.7734 12.7734L16.9669 1.44077L17.5 0L18.0331 1.44077L22.2266 12.7734ZM32.1185 17.5L21.8796 13.7113L21.4483 13.5517L17.5 2.88154L13.5517 13.5517L2.88154 17.5L13.5517 21.4483L17.5 32.1185L21.4483 21.4483L32.1185 17.5Z" fill="rgb(32,32,39)" fill-rule="evenodd" />
</svg>
