<svg viewBox="0 0 18 18" xmlns="http://www.w3.org/2000/svg" xmlns:xlink="http://www.w3.org/1999/xlink" width="18.000000" height="18.000000" fill="none" customFrame="#000000">
	<path id="Star 5" d="M11.4308 6.56918L18 9L11.4308 11.4308L9 18L6.56918 11.4308L1.77636e-15 9L6.56918 6.56918L9 0L11.4308 6.56918Z" fill="rgb(188,236,48)" fill-rule="evenodd" />
	<path id="Star 5" d="M11.4308 6.56918L16.5592 8.46687L18 9L16.5592 9.53313L11.4308 11.4308L9 18L8.46687 16.5592L6.56918 11.4308L1.44077 9.53313L0 9L1.44077 8.46687L6.56918 6.56918L8.46687 1.44077L9 0L9.53313 1.44077L11.4308 6.56918ZM15.1185 9L11.0838 7.50703L10.6525 7.34746L9 2.88154L7.34746 7.34746L2.88154 9L7.34746 10.6525L9 15.1185L10.6525 10.6525L15.1185 9Z" fill="rgb(32,32,39)" fill-rule="evenodd" />
</svg>
