<svg viewBox="0 0 59.5347 59.5347" xmlns="http://www.w3.org/2000/svg" xmlns:xlink="http://www.w3.org/1999/xlink" width="59.534668" height="59.534668" fill="none" customFrame="#000000">
	<path id="Star 12" d="M34.6724 19.9259L53.1575 26.766L54.5983 27.2991L53.1575 27.8323L34.6724 34.6724L27.8323 53.1575L27.2991 54.5983L26.766 53.1575L19.9259 34.6724L1.44077 27.8323L0 27.2991L1.44077 26.766L19.9259 19.9259L26.766 1.44077L27.2991 0L27.8323 1.44077L34.6724 19.9259ZM51.7167 27.2991L34.3254 20.8637L33.8941 20.7042L27.2991 2.88154L20.7042 20.7042L2.88154 27.2991L20.7042 33.8941L27.2991 51.7167L33.8941 33.8941L51.7167 27.2991Z" fill="rgb(188,236,48)" fill-rule="evenodd" transform="matrix(0.995484,0.0949294,-0.0949294,0.995484,5.18311,0)" />
</svg>
