<svg viewBox="0 0 37 37" xmlns="http://www.w3.org/2000/svg" xmlns:xlink="http://www.w3.org/1999/xlink" width="37.000000" height="37.000000" fill="none" customFrame="#000000">
	<path id="Star 5" d="M23.4967 13.5033L37 18.5L23.4967 23.4967L18.5 37L13.5033 23.4967L3.55271e-15 18.5L13.5033 13.5033L18.5 0L23.4967 13.5033Z" fill="rgb(188,236,48)" fill-rule="evenodd" />
	<path id="Star 5" d="M23.4967 13.5033L35.5592 17.9669L37 18.5L35.5592 19.0331L23.4967 23.4967L19.0331 35.5592L18.5 37L17.9669 35.5592L13.5033 23.4967L1.44077 19.0331L0 18.5L1.44077 17.9669L13.5033 13.5033L17.9669 1.44077L18.5 0L19.0331 1.44077L23.4967 13.5033ZM34.1185 18.5L23.1496 14.4412L22.7184 14.2816L18.5 2.88154L14.2816 14.2816L2.88154 18.5L14.2816 22.7184L18.5 34.1185L22.7184 22.7184L34.1185 18.5Z" fill="rgb(32,32,39)" fill-rule="evenodd" />
</svg>
