<svg viewBox="0 0 57 57" xmlns="http://www.w3.org/2000/svg" xmlns:xlink="http://www.w3.org/1999/xlink" width="57.000000" height="57.000000" fill="none" customFrame="#000000">
	<path id="Star 2" d="M36.1976 20.8024L57 28.5L36.1976 36.1976L28.5 57L20.8024 36.1976L3.55271e-15 28.5L20.8024 20.8024L28.5 0L36.1976 20.8024Z" fill="rgb(188,236,48)" fill-rule="evenodd" />
	<path id="Star 2" d="M36.1976 20.8024L55.5592 27.9669L57 28.5L55.5592 29.0331L36.1976 36.1976L29.0331 55.5592L28.5 57L27.9669 55.5592L20.8024 36.1976L1.44077 29.0331L0 28.5L1.44077 27.9669L20.8024 20.8024L27.9669 1.44077L28.5 0L29.0331 1.44077L36.1976 20.8024ZM54.1185 28.5L35.8505 21.7403L35.4193 21.5807L28.5 2.88154L21.5807 21.5807L2.88154 28.5L21.5807 35.4193L28.5 54.1185L35.4193 35.4193L54.1185 28.5Z" fill="rgb(32,32,39)" fill-rule="evenodd" />
</svg>
