<svg viewBox="0 0 75.0879 75.0876" xmlns="http://www.w3.org/2000/svg" xmlns:xlink="http://www.w3.org/1999/xlink" width="75.087891" height="75.087646" fill="none" customFrame="#000000">
	<path id="Star 6" d="M43.7303 25.1314L67.4209 33.8977L68.8617 34.4309L67.4209 34.964L43.7303 43.7303L34.964 67.4209L34.4308 68.8617L33.8977 67.4209L25.1314 43.7303L1.44077 34.964L0 34.4309L1.44077 33.8977L25.1314 25.1314L33.8977 1.44077L34.4309 0L34.964 1.44077L43.7303 25.1314ZM65.9802 34.4309L43.3833 26.0692L42.952 25.9097L34.4309 2.88154L25.9097 25.9097L2.88154 34.4309L25.9097 42.952L34.4308 65.9802L42.952 42.952L65.9802 34.4309Z" fill="rgb(188,236,48)" fill-rule="evenodd" transform="matrix(0.995484,0.0949294,-0.0949294,0.995484,6.53711,0)" />
</svg>
