<svg viewBox="0 0 649.562 649.563" xmlns="http://www.w3.org/2000/svg" xmlns:xlink="http://www.w3.org/1999/xlink" width="649.562500" height="649.562744" fill="none" customFrame="#000000">
	<path id="Star 1" d="M340.81 191.746L341.736 191.327L519.016 110.945L520.933 110.076L519.659 111.752L401.844 266.7L401.229 267.509L402.134 267.971L575.512 356.457L577.387 357.414L575.282 357.463L380.682 361.961L379.666 361.984L379.869 362.98L418.787 553.701L419.208 555.764L417.858 554.149L293.01 404.809L292.358 404.029L291.707 404.809L166.859 554.149L165.509 555.764L165.93 553.701L204.847 362.98L205.05 361.984L204.035 361.96L9.43456 357.463L7.33004 357.414L9.20501 356.457L182.582 267.971L183.487 267.509L182.872 266.7L65.0575 111.751L63.7834 110.076L65.7006 110.945L242.981 191.327L243.906 191.746L244.155 190.761L291.843 2.04089L292.358 0L292.874 2.04089L340.562 190.761L340.81 191.746ZM517.742 112.621L341.223 192.657L340.134 193.151L292.358 4.08177L244.583 193.151L66.9747 112.621L185.007 267.856L11.3095 356.506L206.269 361.012L167.28 552.086L292.358 402.47L417.437 552.086L378.447 361.012L573.407 356.506L399.709 267.856L517.742 112.621Z" fill="rgb(188,236,48)" fill-rule="evenodd" transform="matrix(0.993029,-0.117873,0.117873,0.993029,0,68.9225)" />
</svg>
